#Comment line ignore any data following # character 
#Hierarchical Translation and Rotation (.htr) file 
[Header]	
#Header keywords are followed by a single value 
FileType HTR		#Single word string
DataType HTRS		#Translation followed by rotation and scale data
FileVersion 1		#integer
NumSegments 64		#integer
NumFrames 3		#integer
DataFrameRate 30		#integer, data frame rate in this file
EulerRotationOrder ZYX
CalibrationUnits mm
RotationUnits Degrees
GlobalAxisofGravity Y
BoneLengthAxis Y
ScaleFactor 1.00
[SegmentNames&Hierarchy]
#CHILD	PARENT
Pinger_Root GLOBAL
Pelvis Pinger_Root
L_Hip Pelvis
R_Hip Pelvis
Rear_Leg01 Pelvis
Spine1 Pelvis
L_Leg01 L_Hip
L_Leg02 L_Leg01
L_Leg03 L_Leg02
L_Foot L_Leg03
L_Toe1_01 L_Foot
L_Toe2_01 L_Foot
L_Toe3_01 L_Foot
planeAlignerLeft L_Foot
L_Toe1_02 L_Toe1_01
L_Toe1_03 L_Toe1_02
L_Toe2_02 L_Toe2_01
L_Toe2_03 L_Toe2_02
L_Toe3_02 L_Toe3_01
L_Toe3_03 L_Toe3_02
planeLockWeightLeft planeAlignerLeft
R_Leg01 R_Hip
R_Leg02 R_Leg01
R_Leg03 R_Leg02
R_Foot R_Leg03
planeAlignerRight R_Foot
R_Toe1_01 R_Foot
R_Toe2_01 R_Foot
R_Toe3_01 R_Foot
planeLockWeightRight planeAlignerRight
R_Toe1_02 R_Toe1_01
R_Toe1_03 R_Toe1_02
R_Toe2_02 R_Toe2_01
R_Toe2_03 R_Toe2_02
R_Toe3_02 R_Toe3_01
R_Toe3_03 R_Toe3_02
Rear_Leg02 Rear_Leg01
Rear_Leg03 Rear_Leg02
Rear_Leg04 Rear_Leg03
Rear_Foot Rear_Leg04
planeAlignerCenter Rear_Foot
Rear_Toe1_01 Rear_Foot
Rear_Toe2_01 Rear_Foot
Rear_Toe3_01 Rear_Foot
planeLockWeightCenter planeAlignerCenter
Rear_Toe1_02 Rear_Toe1_01
Rear_Toe1_03 Rear_Toe1_02
Rear_Toe2_02 Rear_Toe2_01
Rear_Toe2_03 Rear_Toe2_02
Rear_Toe3_02 Rear_Toe3_01
Rear_Toe3_03 Rear_Toe3_02
Back_Bone Spine1
Head Spine1
Motor_Bone Back_Bone
Ping_Mechanism Back_Bone
BN_LookIK Head
bottomMouth Head
L_Mouth01 Head
L_mouthFront Head
mouthGun Head
R_Mouth01 Head
R_mouthFront Head
TopMouth Head
weapon_bone Head
[BasePosition]
#SegmentName Tx, Ty, Tz, Rx, Ry, Rz, BoneLength
Pinger_Root 0.000000 0.000000 0.000000 -90.000000 0.000000 0.000000 10.000000 
Pelvis 0.000000 0.000000 0.000000 0.000000 0.000000 0.000000 10.000000 
L_Hip 0.000000 0.000000 0.000000 0.000000 0.000000 0.000000 10.000000 
R_Hip 0.000000 0.000000 0.000000 0.000000 0.000000 0.000000 10.000000 
Rear_Leg01 0.000000 0.000000 0.000000 0.000000 0.000000 0.000000 10.000000 
Spine1 0.000000 0.000000 0.000000 0.000000 0.000000 0.000000 10.000000 
L_Leg01 0.000000 0.000000 0.000000 0.000000 0.000000 0.000000 10.000000 
L_Leg02 0.000000 0.000000 0.000000 0.000000 0.000000 0.000000 10.000000 
L_Leg03 0.000000 0.000000 0.000000 0.000000 0.000000 0.000000 10.000000 
L_Foot 0.000000 0.000000 0.000000 0.000000 0.000000 0.000000 10.000000 
L_Toe1_01 0.000000 0.000000 0.000000 0.000000 0.000000 0.000000 10.000000 
L_Toe2_01 0.000000 0.000000 0.000000 0.000000 0.000000 0.000000 10.000000 
L_Toe3_01 0.000000 0.000000 0.000000 0.000000 0.000000 0.000000 10.000000 
planeAlignerLeft 0.000000 0.000000 0.000000 0.000000 0.000000 0.000000 10.000000 
L_Toe1_02 0.000000 0.000000 0.000000 0.000000 0.000000 0.000000 10.000000 
L_Toe1_03 0.000000 0.000000 0.000000 0.000000 0.000000 0.000000 10.000000 
L_Toe2_02 0.000000 0.000000 0.000000 0.000000 0.000000 0.000000 10.000000 
L_Toe2_03 0.000000 0.000000 0.000000 0.000000 0.000000 0.000000 10.000000 
L_Toe3_02 0.000000 0.000000 0.000000 0.000000 0.000000 0.000000 10.000000 
L_Toe3_03 0.000000 0.000000 0.000000 0.000000 0.000000 0.000000 10.000000 
planeLockWeightLeft 0.000000 0.000000 0.000000 0.000000 0.000000 0.000000 10.000000 
R_Leg01 0.000000 0.000000 0.000000 0.000000 0.000000 0.000000 10.000000 
R_Leg02 0.000000 0.000000 0.000000 0.000000 0.000000 0.000000 10.000000 
R_Leg03 0.000000 0.000000 0.000000 0.000000 0.000000 0.000000 10.000000 
R_Foot 0.000000 0.000000 0.000000 0.000000 0.000000 0.000000 10.000000 
planeAlignerRight 0.000000 0.000000 0.000000 0.000000 0.000000 0.000000 10.000000 
R_Toe1_01 0.000000 0.000000 0.000000 0.000000 0.000000 0.000000 10.000000 
R_Toe2_01 0.000000 0.000000 0.000000 0.000000 0.000000 0.000000 10.000000 
R_Toe3_01 0.000000 0.000000 0.000000 0.000000 0.000000 0.000000 10.000000 
planeLockWeightRight 0.000000 0.000000 0.000000 0.000000 0.000000 0.000000 10.000000 
R_Toe1_02 0.000000 0.000000 0.000000 0.000000 0.000000 0.000000 10.000000 
R_Toe1_03 0.000000 0.000000 0.000000 0.000000 0.000000 0.000000 10.000000 
R_Toe2_02 0.000000 0.000000 0.000000 0.000000 0.000000 0.000000 10.000000 
R_Toe2_03 0.000000 0.000000 0.000000 0.000000 0.000000 0.000000 10.000000 
R_Toe3_02 0.000000 0.000000 0.000000 0.000000 0.000000 0.000000 10.000000 
R_Toe3_03 0.000000 0.000000 0.000000 0.000000 0.000000 0.000000 10.000000 
Rear_Leg02 0.000000 0.000000 0.000000 0.000000 0.000000 0.000000 10.000000 
Rear_Leg03 0.000000 0.000000 0.000000 0.000000 0.000000 0.000000 10.000000 
Rear_Leg04 0.000000 0.000000 0.000000 0.000000 0.000000 0.000000 10.000000 
Rear_Foot 0.000000 0.000000 0.000000 0.000000 0.000000 0.000000 10.000000 
planeAlignerCenter 0.000000 0.000000 0.000000 0.000000 0.000000 0.000000 10.000000 
Rear_Toe1_01 0.000000 0.000000 0.000000 0.000000 0.000000 0.000000 10.000000 
Rear_Toe2_01 0.000000 0.000000 0.000000 0.000000 0.000000 0.000000 10.000000 
Rear_Toe3_01 0.000000 0.000000 0.000000 0.000000 0.000000 0.000000 10.000000 
planeLockWeightCenter 0.000000 0.000000 0.000000 0.000000 0.000000 0.000000 10.000000 
Rear_Toe1_02 0.000000 0.000000 0.000000 0.000000 0.000000 0.000000 10.000000 
Rear_Toe1_03 0.000000 0.000000 0.000000 0.000000 0.000000 0.000000 10.000000 
Rear_Toe2_02 0.000000 0.000000 0.000000 0.000000 0.000000 0.000000 10.000000 
Rear_Toe2_03 0.000000 0.000000 0.000000 0.000000 0.000000 0.000000 10.000000 
Rear_Toe3_02 0.000000 0.000000 0.000000 0.000000 0.000000 0.000000 10.000000 
Rear_Toe3_03 0.000000 0.000000 0.000000 0.000000 0.000000 0.000000 10.000000 
Back_Bone 0.000000 0.000000 0.000000 0.000000 0.000000 0.000000 10.000000 
Head 0.000000 0.000000 0.000000 0.000000 0.000000 0.000000 10.000000 
Motor_Bone 0.000000 0.000000 0.000000 0.000000 0.000000 0.000000 10.000000 
Ping_Mechanism 0.000000 0.000000 0.000000 0.000000 0.000000 0.000000 10.000000 
BN_LookIK 0.000000 0.000000 0.000000 0.000000 0.000000 0.000000 10.000000 
bottomMouth 0.000000 0.000000 0.000000 0.000000 0.000000 0.000000 10.000000 
L_Mouth01 0.000000 0.000000 0.000000 0.000000 0.000000 0.000000 10.000000 
L_mouthFront 0.000000 0.000000 0.000000 0.000000 0.000000 0.000000 10.000000 
mouthGun 0.000000 0.000000 0.000000 0.000000 0.000000 0.000000 10.000000 
R_Mouth01 0.000000 0.000000 0.000000 0.000000 0.000000 0.000000 10.000000 
R_mouthFront 0.000000 0.000000 0.000000 0.000000 0.000000 0.000000 10.000000 
TopMouth 0.000000 0.000000 0.000000 0.000000 0.000000 0.000000 10.000000 
weapon_bone 0.000000 0.000000 0.000000 0.000000 0.000000 0.000000 10.000000 
#Beginning of Data. Separated by tabs
#Fr	Tx	Ty	Tz	Rx	Ry	Rz	SF
[Pinger_Root]
95 0.000000 0.000000 0.000000 -0.000075 -0.000000 -0.000020 0.000000
96 0.000000 0.000000 0.000000 -0.000075 -0.000000 -0.000020 0.000000
97 0.000000 0.000000 0.000000 -0.000075 -0.000000 -0.000020 0.000000
[Pelvis]
95 624.229736 920.917480 4669.375977 -13.619218 -73.062767 5.394080 4800.085449
96 614.389221 915.469360 4696.359863 -14.491969 -74.097893 6.302340 4824.039063
97 604.146851 909.429993 4721.113770 -15.733735 -75.359200 7.591558 4845.716797
[L_Hip]
95 5.766392 125.831482 872.656799 164.677979 -46.859890 116.050240 881.701050
96 5.766392 125.831482 872.656799 167.002991 -47.401314 112.879898 881.701050
97 5.766392 125.831482 872.656799 169.693420 -47.907902 109.239700 881.701050
[R_Hip]
95 5.765438 125.836372 -872.654907 38.087833 49.812687 125.703735 881.699829
96 5.765438 125.836372 -872.654907 38.087841 49.812687 125.703735 881.699829
97 5.765438 125.836372 -872.654907 38.087841 49.812687 125.703735 881.699829
[Rear_Leg01]
95 -192.298416 -925.602966 -0.001907 174.176025 11.529824 -160.418121 945.367432
96 -192.298416 -925.602966 -0.001907 173.786591 10.633088 -160.738434 945.367432
97 -192.298416 -925.602966 -0.001907 173.327698 9.490889 -161.055161 945.367432
[Spine1]
95 290.604584 5.007505 0.000477 1.411131 -16.623098 20.202362 290.647736
96 290.604584 5.007505 0.000477 1.790506 -15.612088 20.102726 290.647736
97 290.604584 5.007505 0.000477 2.256539 -14.363849 19.985188 290.647736
[L_Leg01]
95 761.932007 -0.002384 -0.069261 1.375550 -25.303587 -13.674211 761.932068
96 761.932007 -0.002384 -0.069261 0.675769 -24.905781 -12.876554 761.932068
97 761.932007 -0.002384 -0.069261 0.401677 -24.576399 -11.956448 761.932068
[L_Leg02]
95 1441.140503 -0.000954 -0.000715 -1.143226 0.744442 -117.874191 1441.140503
96 1441.140503 -0.000954 -0.000715 -1.104813 0.784116 -118.624458 1441.140503
97 1441.140503 -0.000954 -0.000715 -1.066920 0.824293 -119.374756 1441.140503
[L_Leg03]
95 1686.963989 -0.000715 -0.000954 0.086579 -0.011972 87.328941 1686.963989
96 1686.963989 -0.000715 -0.000954 0.097480 -0.012926 84.624481 1686.963989
97 1686.963989 -0.000715 -0.000954 0.104764 -0.009881 81.643173 1686.963989
[L_Foot]
95 3041.570068 -30.715107 11.297464 5.837065 14.290152 65.617203 3041.746094
96 3041.570068 -30.715107 11.297464 6.086280 14.315283 66.858818 3041.746094
97 3041.570068 -30.715107 11.297464 6.067966 14.342484 68.120613 3041.746094
[L_Toe1_01]
95 -188.216690 -224.732346 -21.137953 93.577103 -7.079919 -170.474716 293.899567
96 -188.216690 -224.732346 -21.137953 93.515343 -7.172518 -169.831161 293.899567
97 -188.216690 -224.732346 -21.137953 93.452538 -7.264418 -169.187424 293.899567
[L_Toe2_01]
95 200.746536 -219.926590 148.838394 -89.459602 -26.231926 -54.071198 332.896027
96 200.746536 -219.926590 148.838394 -89.206131 -26.193115 -54.692757 332.896027
97 200.746536 -219.926590 148.838394 -88.953224 -26.151844 -55.313877 332.896027
[L_Toe3_01]
95 188.832520 -219.859131 -191.078659 -99.885849 13.280401 -69.069061 347.140900
96 188.832520 -219.859131 -191.078659 -99.922234 13.032295 -69.681976 347.140900
97 188.832520 -219.859131 -191.078659 -99.955856 12.783830 -70.294083 347.140900
[planeAlignerLeft]
95 0.812531 -811.448792 -0.314951 0.000000 -90.000000 -90.001900 811.449280
96 0.812531 -811.448792 -0.314951 0.000000 -90.000000 -90.001900 811.449280
97 0.812531 -811.448792 -0.314951 0.000000 -90.000000 -90.001900 811.449280
[L_Toe1_02]
95 413.761139 0.000477 0.000000 0.001384 -25.972328 0.001384 413.761139
96 413.761139 0.000477 0.000000 0.001384 -25.938499 0.001384 413.761139
97 413.761139 0.000477 0.000000 0.001385 -25.904667 0.001385 413.761139
[L_Toe1_03]
95 464.317322 0.000358 -0.000089 0.003543 51.307503 0.003543 464.317322
96 464.317322 0.000358 -0.000089 0.003465 50.405670 0.003465 464.317322
97 464.317322 0.000358 -0.000089 0.003387 49.453724 0.003387 464.317322
[L_Toe2_02]
95 342.235809 -0.000477 0.000238 0.001189 -71.672768 0.001189 342.235809
96 342.235809 -0.000477 0.000238 0.001189 -71.335655 0.001189 342.235809
97 342.235809 -0.000477 0.000238 0.001190 -70.998543 0.001190 342.235809
[L_Toe2_03]
95 420.210846 -0.000715 0.000000 0.020917 83.564621 0.020917 420.210846
96 420.210846 -0.000715 0.000000 0.018585 82.756081 0.018585 420.210846
97 420.210846 -0.000715 0.000000 0.016721 81.947556 0.016721 420.210846
[L_Toe3_02]
95 329.270111 0.000954 0.000000 0.001178 -79.913010 0.001178 329.270111
96 329.270111 0.000954 0.000000 0.001178 -79.685249 0.001178 329.270111
97 329.270111 0.000954 0.000000 0.001179 -79.457474 0.001179 329.270111
[L_Toe3_03]
95 439.137451 -0.001907 0.000954 -179.994827 80.489311 -179.991318 439.137451
96 439.137451 -0.001907 0.000954 -179.994125 81.359642 -179.990616 439.137451
97 439.137451 -0.001907 0.000954 -179.993271 82.230042 -179.989761 439.137451
[planeLockWeightLeft]
95 -0.000954 0.000238 -0.000305 -0.011826 -0.004376 0.005620 0.001029
96 -0.000954 0.000238 -0.000305 -0.011826 -0.004376 0.005620 0.001029
97 -0.000954 0.000238 -0.000305 -0.011826 -0.004376 0.005620 0.001029
[R_Leg01]
95 761.455627 -0.001907 -0.000358 114.387718 1.362918 29.250223 761.455688
96 761.455627 -0.001907 -0.000358 114.862244 1.011446 30.538136 761.455688
97 761.455627 -0.001907 -0.000358 115.443748 0.288666 31.943989 761.455688
[R_Leg02]
95 1441.140625 0.000000 -0.000238 -1.943140 -0.604500 -118.317879 1441.140625
96 1441.140625 0.000000 -0.000238 -1.781713 -0.475740 -116.056717 1441.140625
97 1441.140625 0.000000 -0.000238 -1.605179 -0.370764 -114.144157 1441.140625
[R_Leg03]
95 1686.963989 0.000954 0.001431 0.104402 -0.063249 139.251389 1686.963989
96 1686.963989 0.000954 0.001431 0.098895 -0.058907 137.597382 1686.963989
97 1686.963989 0.000954 0.001431 0.092516 -0.052218 135.647949 1686.963989
[R_Foot]
95 3041.560059 -30.531288 -11.204481 -7.378267 -24.773500 56.464050 3041.734131
96 3041.560059 -30.531288 -11.204481 -7.541087 -24.815706 56.135891 3041.734131
97 3041.560059 -30.531288 -11.204481 -7.743484 -24.862022 56.047363 3041.734131
[planeAlignerRight]
95 -0.635147 -812.270569 -0.364304 0.000000 -89.960434 -90.005180 812.270874
96 -0.635147 -812.270569 -0.364304 0.000000 -89.960434 -90.005180 812.270874
97 -0.635147 -812.270569 -0.364304 0.000000 -89.960434 -90.005180 812.270874
[R_Toe1_01]
95 -188.383347 -224.864899 21.052242 77.188354 -3.254949 172.288818 294.101532
96 -188.383347 -224.864899 21.052242 77.188316 -3.254833 172.289246 294.101532
97 -188.383347 -224.864899 21.052242 77.188263 -3.254718 172.289673 294.101532
[R_Toe2_01]
95 200.637817 -220.002121 -148.787384 -84.897964 32.506577 -46.575375 332.857574
96 200.637817 -220.002121 -148.787384 -84.898262 32.506573 -46.575958 332.857574
97 200.637817 -220.002121 -148.787384 -84.898560 32.506554 -46.576534 332.857574
[R_Toe3_01]
95 188.606735 -220.092957 191.126343 -74.389771 -14.495734 -66.140434 347.192566
96 188.606735 -220.092957 191.126343 -74.389771 -14.495509 -66.140900 347.192566
97 188.606735 -220.092957 191.126343 -74.389778 -14.495285 -66.141380 347.192566
[planeLockWeightRight]
95 -0.000477 0.000000 0.000000 -0.011823 -0.004379 -0.000027 0.000477
96 -0.000477 0.000000 0.000000 -0.011823 -0.004379 -0.000027 0.000477
97 -0.000477 0.000000 0.000000 -0.011823 -0.004379 -0.000027 0.000477
[R_Toe1_02]
95 413.762085 0.000477 -0.000119 0.001470 -15.962651 0.001470 413.762085
96 413.762085 0.000477 -0.000119 0.001470 -15.963283 0.001470 413.762085
97 413.762085 0.000477 -0.000119 0.001470 -15.963922 0.001470 413.762085
[R_Toe1_03]
95 464.317810 0.000000 0.001088 -179.996872 76.484833 -179.993347 464.317810
96 464.317810 0.000000 0.001088 -179.996872 76.485291 -179.993347 464.317810
97 464.317810 0.000000 0.001088 -179.996872 76.485741 -179.993347 464.317810
[R_Toe2_02]
95 342.234741 -0.000954 0.000238 -0.002332 -79.723145 -0.002332 342.234741
96 342.234741 -0.000954 0.000238 -0.002332 -79.722603 -0.002332 342.234741
97 342.234741 -0.000954 0.000238 -0.002332 -79.722107 -0.002332 342.234741
[R_Toe2_03]
95 420.210846 0.000715 -0.000268 -179.995560 65.004646 -179.999130 420.210846
96 420.210846 0.000715 -0.000268 -179.995560 65.005066 -179.999130 420.210846
97 420.210846 0.000715 -0.000268 -179.995560 65.005463 -179.999130 420.210846
[R_Toe3_02]
95 329.270355 -0.000477 -0.000954 0.001175 -83.689941 0.001175 329.270355
96 329.270355 -0.000477 -0.000954 0.001175 -83.689438 0.001175 329.270355
97 329.270355 -0.000477 -0.000954 0.001175 -83.689003 0.001175 329.270355
[R_Toe3_03]
95 439.137939 0.000238 0.001431 -179.994339 60.973419 -179.987122 439.137939
96 439.137939 0.000238 0.001431 -179.994339 60.973946 -179.987122 439.137939
97 439.137939 0.000238 0.001431 -179.994339 60.974464 -179.987122 439.137939
[Rear_Leg02]
95 1162.777710 -0.029802 0.005960 0.039015 -2.990513 -111.836418 1162.777710
96 1162.777710 -0.029802 0.005960 -0.000615 -2.992573 -111.055183 1162.777710
97 1162.777710 -0.029802 0.005960 -0.040270 -2.994092 -110.273956 1162.777710
[Rear_Leg03]
95 607.192505 -0.013351 -0.073195 0.006551 -0.001860 59.909481 607.192505
96 607.192505 -0.013351 -0.073195 0.006558 -0.001837 59.511398 607.192505
97 607.192505 -0.013351 -0.073195 0.006562 -0.001823 59.257118 607.192505
[Rear_Leg04]
95 995.874512 -0.020504 -0.011921 -0.039308 -0.018068 49.901474 995.874573
96 995.874512 -0.020504 -0.011921 -0.039202 -0.018294 49.238712 995.874573
97 995.874512 -0.020504 -0.011921 -0.039128 -0.018455 48.768543 995.874573
[Rear_Foot]
95 3096.176270 -0.067472 -0.041425 -165.223022 79.802727 26.459354 3096.176270
96 3096.176270 -0.067472 -0.041425 -164.950928 79.955803 26.623180 3096.176270
97 3096.176270 -0.067472 -0.041425 -164.672073 80.108688 26.793728 3096.176270
[planeAlignerCenter]
95 0.350077 0.966311 -838.790894 0.000009 0.000003 -179.999985 838.791565
96 0.350077 0.966311 -838.790894 0.000009 0.000003 -179.999985 838.791565
97 0.350077 0.966311 -838.790894 0.000009 0.000003 -179.999985 838.791565
[Rear_Toe1_01]
95 0.653352 83.966492 -371.173737 0.291410 41.138115 90.406418 380.553192
96 0.653352 83.966492 -371.173737 0.291428 41.138130 90.406410 380.553192
97 0.653352 83.966492 -371.173737 0.291451 41.138153 90.406425 380.553192
[Rear_Toe2_01]
95 178.200760 -294.826019 -362.060547 -7.261651 33.853962 -66.229546 499.765686
96 178.200760 -294.826019 -362.060547 -7.261669 33.853985 -66.229561 499.765686
97 178.200760 -294.826019 -362.060547 -7.261693 33.854008 -66.229568 499.765686
[Rear_Toe3_01]
95 -153.359680 -308.780914 -362.060852 3.322300 32.989574 -112.582558 499.952881
96 -153.359680 -308.780914 -362.060852 3.322300 32.989574 -112.582558 499.952881
97 -153.359680 -308.780914 -362.060852 3.322300 32.989574 -112.582558 499.952881
[planeLockWeightCenter]
95 -0.000062 0.000238 0.000000 -0.011814 -0.004373 -0.000015 0.000246
96 -0.000062 0.000238 0.000000 -0.011814 -0.004373 -0.000015 0.000246
97 -0.000062 0.000238 0.000000 -0.011814 -0.004373 -0.000015 0.000246
[Rear_Toe1_02]
95 379.707825 0.194073 0.000477 -0.000261 -31.944153 0.006945 379.707855
96 379.707825 0.194073 0.000477 -0.000261 -31.944153 0.006945 379.707855
97 379.707825 0.194073 0.000477 -0.000261 -31.944164 0.006945 379.707855
[Rear_Toe1_03]
95 500.129700 0.165701 0.000119 0.000045 53.309292 0.007413 500.129761
96 500.129700 0.165701 0.000119 0.000045 53.309292 0.007413 500.129761
97 500.129700 0.165701 0.000119 0.000045 53.309292 0.007413 500.129761
[Rear_Toe2_02]
95 340.494507 0.000238 -0.000954 0.001191 -70.483078 0.001191 340.494507
96 340.494507 0.000238 -0.000954 0.001191 -70.483078 0.001191 340.494507
97 340.494507 0.000238 -0.000954 0.001191 -70.483078 0.001191 340.494507
[Rear_Toe2_03]
95 433.103577 0.000000 0.000238 0.007024 70.762794 0.007024 433.103546
96 433.103577 0.000000 0.000238 0.007024 70.762779 0.007024 433.103546
97 433.103577 0.000000 0.000238 0.007024 70.762772 0.007024 433.103546
[Rear_Toe3_02]
95 340.494141 -0.000358 -0.000477 0.004971 -67.923424 -0.004410 340.494171
96 340.494141 -0.000358 -0.000477 0.005011 -67.923424 -0.004469 340.494171
97 340.494141 -0.000358 -0.000477 0.005052 -67.923424 -0.004529 340.494171
[Rear_Toe3_03]
95 433.103577 0.001431 -0.000238 0.005868 66.925529 0.005868 433.103546
96 433.103577 0.001431 -0.000238 0.005868 66.925499 0.005868 433.103546
97 433.103577 0.001431 -0.000238 0.005868 66.925461 0.005868 433.103546
[Back_Bone]
95 1312.175781 -701.934692 0.000954 1.463704 -0.194218 -78.411652 1488.125488
96 1312.175781 -701.934692 0.000954 1.463732 -0.193737 -78.358482 1488.125488
97 1312.175781 -701.934692 0.000954 1.463761 -0.193257 -78.305336 1488.125488
[Head]
95 1406.159424 809.709290 0.001431 4.149619 -3.183144 18.844471 1622.625488
96 1406.159424 809.709290 0.001431 4.160088 -3.193564 18.841824 1622.625488
97 1406.159424 809.709290 0.001431 4.170556 -3.203982 18.839165 1622.625488
[Motor_Bone]
95 1158.364380 -417.834747 0.000477 -0.000105 0.000046 -105.985291 1231.419434
96 1158.364380 -417.834747 0.000477 -0.000105 0.000046 -105.985291 1231.419434
97 1158.364380 -417.834747 0.000477 -0.000105 0.000046 -105.985291 1231.419434
[Ping_Mechanism]
95 1228.835083 -427.824036 85.039009 0.000103 -0.000053 82.120995 1303.955811
96 1228.651978 -429.610504 79.285889 0.000103 -0.000053 82.120995 1304.008179
97 1228.468872 -431.397003 73.532631 0.000103 -0.000053 82.120995 1304.088257
[BN_LookIK]
95 193.241119 1380.371704 -0.002861 0.000000 89.965736 -31.038179 1393.832153
96 193.241119 1380.371704 -0.002861 0.000000 89.965736 -31.038179 1393.832153
97 193.241119 1380.371704 -0.002861 0.000000 89.965736 -31.038179 1393.832153
[bottomMouth]
95 -435.092926 615.759399 -0.000954 -0.000022 0.000016 73.527184 753.966492
96 -435.092926 615.759399 -0.000954 -0.000022 0.000016 73.527184 753.966492
97 -435.092926 615.759399 -0.000954 -0.000022 0.000016 73.527184 753.966492
[L_Mouth01]
95 554.440979 7.658243 838.222046 150.204178 23.759130 109.605339 1005.027161
96 554.440979 7.658243 838.222046 150.204178 23.759130 109.605339 1005.027161
97 554.440979 7.658243 838.222046 150.204178 23.759130 109.605339 1005.027161
[L_mouthFront]
95 551.629089 934.514771 339.150421 0.000081 2.804060 79.119301 1136.941284
96 551.629089 934.514771 339.150421 0.000081 2.804060 79.119301 1136.941284
97 551.629089 934.514771 339.150421 0.000081 2.804060 79.119301 1136.941284
[mouthGun]
95 55.332661 1627.420898 0.000000 0.000023 0.000009 -11.038128 1628.361328
96 55.332661 1627.420898 0.000000 0.000023 0.000009 -11.038128 1628.361328
97 55.332661 1627.420898 0.000000 0.000023 0.000009 -11.038128 1628.361328
[R_Mouth01]
95 554.442383 7.659197 -838.223938 29.795891 -23.759109 109.605331 1005.029541
96 554.442383 7.659197 -838.223938 29.795891 -23.759109 109.605331 1005.029541
97 554.442383 7.659197 -838.223938 29.795891 -23.759109 109.605331 1005.029541
[R_mouthFront]
95 551.629089 934.514282 -339.151367 0.000029 -2.803930 79.119133 1136.941162
96 551.629089 934.514282 -339.151367 0.000029 -2.803930 79.119133 1136.941162
97 551.629089 934.514282 -339.151367 0.000029 -2.803930 79.119133 1136.941162
[TopMouth]
95 461.269867 -56.106091 -0.008583 -0.000059 -0.000268 92.025169 464.669525
96 461.269867 -56.106091 -0.008583 -0.000059 -0.000268 92.025169 464.669525
97 461.269867 -56.106091 -0.008583 -0.000059 -0.000268 92.025169 464.669525
[weapon_bone]
95 -987.239868 1448.372803 0.001431 0.000000 89.965736 -31.038221 1752.833740
96 -987.239868 1448.372803 0.001431 0.000000 89.965736 -31.038221 1752.833740
97 -987.239868 1448.372803 0.001431 0.000000 89.965736 -31.038221 1752.833740
